<svg width="44" height="44" viewBox="0 0 44 44" fill="none" xmlns="http://www.w3.org/2000/svg">
    <rect width="44" height="44" rx="6.512" fill="white"/>
    <path d="M22.176 9.85596V23.8377V34.496" stroke="#A88AED" stroke-width="0.264"/>
    <path d="M29.5681 9.85596V23.8377V34.496" stroke="#A88AED" stroke-opacity="0.4" stroke-width="0.264" stroke-dasharray="0.88 0.53"/>
    <path d="M7.39209 9.85596V23.8377V34.496" stroke="#A88AED" stroke-width="0.264"/>
    <path d="M14.7839 9.85596V23.8377V34.496" stroke="#A88AED" stroke-opacity="0.4" stroke-width="0.264" stroke-dasharray="0.88 0.53"/>
    <path d="M36.96 9.85596L36.96 23.8377L36.96 34.496" stroke="#A88AED" stroke-width="0.264"/>
    <path d="M41.8879 29.5679H19.5171L2.46394 29.5679" stroke="#A88AED" stroke-width="0.264"/>
    <path d="M41.8879 14.7842L19.5171 14.7842H2.46394" stroke="#A88AED" stroke-width="0.264"/>
    <path d="M41.8879 22.1758H19.5171L2.46394 22.1758" stroke="#A88AED" stroke-opacity="0.4" stroke-width="0.264" stroke-dasharray="0.88 0.53"/>
    <path d="M27.9166 24.2443V24.7321C27.9166 24.9287 28.0036 25.061 28.1775 25.1291L28.3364 25.1518H32.3407C32.5298 25.1518 32.6583 25.0648 32.7264 24.8909L32.7491 24.7321V24.2443H27.9166ZM32.7491 23.7792L32.7377 22.9851H27.928V23.7792H32.7491ZM32.7377 22.52V22.1003C32.7377 21.9037 32.6508 21.7713 32.4768 21.7033L32.318 21.6806H28.3477C28.1511 21.6806 28.0187 21.7713 27.9507 21.9528L27.928 22.1003V22.52H32.7377ZM25.2622 21.6466C25.2622 21.5331 25.3189 21.4651 25.4324 21.4424H25.4664C25.6101 21.4424 25.6933 21.4953 25.7159 21.6012L25.7273 21.6125V26.0593C25.7273 26.2559 25.8143 26.3883 25.9882 26.4563C26.0336 26.4714 26.0827 26.479 26.1357 26.479H34.4166C34.53 26.479 34.5981 26.5357 34.6208 26.6492V26.6832C34.6208 26.8269 34.5679 26.9101 34.462 26.9327L34.4506 26.9441H26.1357C25.7802 26.9441 25.5231 26.7928 25.3643 26.4903C25.2962 26.3618 25.2622 26.2219 25.2622 26.0706V21.6466ZM30.0606 19.1963C30.2119 19.1963 30.2686 19.2757 30.2308 19.4345L30.0833 19.911H34.0196C34.133 19.911 34.2011 19.9715 34.2238 20.0925V20.1265C34.2238 20.2626 34.1708 20.342 34.0649 20.3647L34.0536 20.3761H29.9699L29.743 21.2155H32.318C32.6659 21.2155 32.9268 21.3667 33.1007 21.6693C33.1688 21.7978 33.2028 21.9377 33.2028 22.089V22.1003L33.2142 24.7321C33.2142 25.0799 33.0629 25.3408 32.7604 25.5148C32.6394 25.5828 32.4995 25.6169 32.3407 25.6169H28.325C27.9923 25.6169 27.7389 25.4694 27.565 25.1745C27.4894 25.0459 27.4515 24.9022 27.4515 24.7434V24.7321L27.4629 22.1003C27.4629 21.76 27.6141 21.5029 27.9166 21.3289C28.0452 21.2533 28.1889 21.2155 28.3477 21.2155H29.2779L29.5048 20.3761H26.5214C26.4079 20.3761 26.3361 20.3193 26.3058 20.2059V20.1719C26.3058 20.0206 26.3663 19.9337 26.4873 19.911H29.6182L29.7657 19.4345C29.8035 19.2757 29.9018 19.1963 30.0606 19.1963ZM25.6365 19.1169C25.2887 19.1169 25.0353 18.9694 24.8765 18.6745C24.8084 18.5308 24.7744 18.3833 24.7744 18.2321V18.2207C24.782 17.8729 24.9408 17.612 25.2509 17.438C25.3794 17.37 25.5193 17.3359 25.6706 17.3359H32.8398C33.1877 17.3359 33.4486 17.4872 33.6225 17.7897C33.6906 17.9183 33.7246 18.0582 33.7246 18.2094V18.2321C33.7246 18.58 33.5734 18.8409 33.2709 19.0148C33.1423 19.0829 32.9986 19.1169 32.8398 19.1169H25.6365ZM27.6104 18.6518V17.801H25.6592C25.4626 17.801 25.3303 17.8918 25.2622 18.0733L25.2395 18.2207V18.2321C25.2319 18.4287 25.3151 18.5611 25.4891 18.6291C25.5344 18.6443 25.5874 18.6518 25.6479 18.6518H27.6104ZM30.8887 17.801V18.6518H32.8398C33.0364 18.6518 33.1688 18.5611 33.2369 18.3796L33.2595 18.2321V18.2207C33.2595 18.0241 33.1726 17.8918 32.9986 17.8237L32.8398 17.801H30.8887ZM30.4236 18.6518V17.801H28.0754V18.6518H30.4236Z" fill="black"/>
    <path d="M16.2453 21.4764C16.2453 21.1058 16.4042 20.8336 16.7218 20.6597C16.8655 20.584 17.0167 20.5462 17.1755 20.5462H18.9678C19.1872 20.5462 19.3308 20.4441 19.3989 20.2399L19.4329 20.0811L19.4443 18.2661C19.4443 18.0468 19.3422 17.9031 19.138 17.8351L18.9792 17.801H16.5063C16.3928 17.801 16.321 17.7443 16.2907 17.6309V17.5968C16.2907 17.4532 16.3474 17.37 16.4609 17.3473L16.4722 17.3359H18.9792C19.3271 17.3359 19.5955 17.4872 19.7846 17.7897C19.8678 17.9334 19.9094 18.0884 19.9094 18.2548V18.2661L19.898 20.0811C19.898 20.429 19.7468 20.6937 19.4443 20.8752C19.3006 20.9659 19.1418 21.0113 18.9678 21.0113H17.1755C16.9638 21.0113 16.8201 21.1096 16.7445 21.3063L16.7104 21.4764V26.4109C16.7104 26.5622 16.7898 26.6378 16.9487 26.6378H19.3876C19.5615 26.6378 19.6523 26.5584 19.6598 26.3996L19.9094 23.6884C19.9169 23.575 19.9812 23.5107 20.1022 23.4956H20.1363C20.2875 23.5183 20.3669 23.5826 20.3745 23.6884V23.7225L20.1249 26.4336C20.0795 26.8722 19.8413 27.0953 19.4103 27.1029H16.9487C16.4798 27.1029 16.2453 26.8722 16.2453 26.4109V21.4764ZM10.7323 24.7207V25.6509C10.7323 25.8702 10.8344 26.0139 11.0386 26.082L11.1974 26.116H14.1921C14.4114 26.116 14.5551 26.0177 14.6232 25.8211L14.6572 25.6509V24.7207H10.7323ZM10.755 22.9851C11.3902 22.4331 11.7305 21.484 11.7759 20.1378H11.2087C10.9894 20.1378 10.8457 20.2362 10.7777 20.4328L10.7436 20.6029L10.7323 23.0078L10.755 22.9851ZM13.5455 17.801V19.6727H14.2035C14.5665 19.6727 14.8387 19.8278 15.0202 20.1378C15.0958 20.274 15.1337 20.4252 15.1337 20.5916V20.6029L15.1223 25.6509C15.1223 25.9988 14.9711 26.2635 14.6686 26.445C14.5249 26.5357 14.3623 26.5811 14.1808 26.5811H11.1974C10.8344 26.5811 10.5621 26.4223 10.3806 26.1047C10.305 25.9761 10.2672 25.8286 10.2672 25.6622V25.6509L10.2785 20.6029C10.2785 20.2399 10.4373 19.9677 10.755 19.7862C10.8911 19.7106 11.0423 19.6727 11.2087 19.6727H11.7759V17.801H9.97225C9.85882 17.801 9.79075 17.7443 9.76807 17.6309V17.5968C9.76807 17.4532 9.821 17.37 9.92688 17.3473L9.97225 17.3359H15.4059C15.5193 17.3359 15.5874 17.3927 15.6101 17.5061V17.5401C15.6101 17.6914 15.5534 17.7783 15.4399 17.801H13.5455ZM13.5455 20.1378V22.4066C13.5455 22.5578 13.5796 22.6335 13.6476 22.6335C13.7535 22.6335 13.8178 22.5427 13.8405 22.3612L14.0673 21.1474C14.09 21.0264 14.1657 20.9735 14.2942 20.9886H14.3056C14.4417 21.0113 14.5173 21.0756 14.5324 21.1815V21.2268L14.3056 22.452C14.2224 22.883 14.0031 23.0986 13.6476 23.0986C13.2771 23.0986 13.088 22.8755 13.0804 22.4293V20.1378H12.241C12.1956 21.6428 11.7986 22.7129 11.0499 23.3481L11.0386 23.3708C10.9327 23.4464 10.8344 23.4351 10.7436 23.3368L10.7323 23.3141V24.2556H14.6572L14.6686 20.6029C14.6686 20.3836 14.5665 20.2362 14.3623 20.1605L14.2035 20.1378H13.5455ZM13.0804 19.6727V17.801H12.241V19.6727H13.0804Z" fill="black"/>
</svg>
